<svg width="500" height="500" viewBox="0 0 500 500" fill="none" xmlns="http://www.w3.org/2000/svg">
<g clip-path="url(#clip0_1_967)">
<path d="M500 0H0V500H500V0Z" fill="white"/>
<path d="M79.211 209.818C79.211 209.818 50.982 145.555 68.733 100.875C86.484 56.196 154.096 55.255 176.257 83.944C198.418 112.633 262.825 122.509 285.648 99.464C308.47 76.419 387.382 85.481 384.14 135.976C380.898 186.471 375.151 232.482 407.322 241.307C439.493 250.133 483.425 309.845 460.851 360.092C438.277 410.339 333.768 387.558 299.721 406.238C265.673 424.918 109.862 449.163 79.411 367.123C48.96 285.083 99.686 268.908 79.211 209.818Z" fill="#732224"/>
<path d="M409.675 360.771C409.675 360.771 396.303 345.854 399.475 331.481C399.475 331.481 408.544 335.492 412.28 324.462C416.016 313.432 405.634 310.424 405.634 310.424C405.634 310.424 416.243 286.693 424.82 283.351C424.82 283.351 435.123 288.365 436.767 282.014C438.41 275.664 434.123 271.987 434.123 271.987C434.123 271.987 455.457 257.615 467.49 257.28C467.49 257.28 471.501 268.31 467.49 288.03C467.49 288.03 459.752 289.367 458.44 293.044C457.129 296.721 461.501 300.397 465.498 298.726C465.498 298.726 470.832 307.416 461.808 325.799C461.808 325.799 449.229 325.465 448.834 333.152C448.439 340.84 458.334 341.508 458.334 341.508C458.334 341.508 448.57 361.783 430.455 364.179C412.339 366.576 409.675 360.771 409.675 360.771Z" fill="url(#paint0_linear_1_967)"/>
<path d="M409.108 367.468L416.461 350.088L403.76 334.936H406.88L417.576 346.969L423.427 330.703L415.518 322.013L416.462 318.671L424.82 327.361L429.26 314.437L413.565 300.845L416.51 298.617L422.797 306.193V291.264L424.82 290.373V306.862L431.083 312.433L435.64 299.286L431.083 287.476H432.611L437.773 298.172L447.333 279.455L442.598 270.319L443.912 268.982L450.107 277.38L461.917 260.738H465.496L453.295 277.38L464.591 273.216V277.38L451.667 280.569L440.756 299.064L459.021 300.401L460.581 302.852L439.103 302.406L434.129 314.104H448.831L457.906 307.308L460.357 308.422L450.553 316.444L459.243 320.678L455.326 323.798L447.332 317.782L434.101 317.336L429.259 328.923L446.356 324.244L445.622 328.478L429.259 331.375L423.589 347.196L447.332 340.734V345.19L423.425 350.761L413.564 371.06C413.565 371.055 409.331 372.815 409.108 367.468Z" fill="url(#paint1_linear_1_967)"/>
<path d="M413.783 317.394C413.783 317.394 395.932 308.302 393.708 293.752C393.708 293.752 403.613 294.223 403.121 282.588C402.629 270.953 391.861 271.891 391.861 271.891C391.861 271.891 393.2 245.931 399.995 239.721C399.995 239.721 411.413 240.683 410.656 234.166C409.899 227.65 404.574 225.767 404.574 225.767C404.574 225.767 419.291 204.669 430.394 200.019C430.394 200.019 438.112 208.861 441.481 228.701C441.481 228.701 434.745 232.738 434.848 236.64C434.95 240.542 440.354 242.395 443.48 239.395C443.48 239.395 451.589 245.577 449.8 265.978C449.8 265.978 437.946 270.202 440.349 277.515C442.752 284.828 452.223 281.884 452.223 281.884C452.223 281.884 450.426 304.316 434.394 313.082C418.362 321.848 413.783 317.394 413.783 317.394Z" fill="url(#paint2_linear_1_967)"/>
<path d="M415.669 323.845L416.261 304.982L398.951 295.429L401.861 294.304L416.176 301.671L415.768 284.389L405.258 279.135L404.933 275.677L415.863 280.769L415.344 267.114L395.804 260.095L397.748 256.955L406.344 261.755L400.961 247.83L402.526 246.269L408.471 261.649L416.321 264.587L415.831 250.681L407.323 241.309L408.748 240.758L417.419 248.873L419.587 227.968L411.877 221.154L412.621 219.433L421.427 225.032L426.442 205.251L429.78 203.961L424.4 223.883L433.435 215.926L434.936 219.81L424.031 227.445L420.522 248.63L438.04 243.291L440.379 245.015L420.185 252.343L419.764 265.048L433.477 259.747L439.491 250.136L442.179 250.291L435.926 261.308L445.558 262.124L443.029 266.446L433.403 263.717L420.901 268.072L420.562 280.625L434.822 270.096L435.664 274.309L421.446 282.911L421.862 299.712L441.678 285.124L443.285 289.281L422.995 303.097L421.116 325.586C421.119 325.583 417.805 328.753 415.669 323.845Z" fill="url(#paint3_linear_1_967)"/>
<path d="M81.107 327.428C81.107 327.428 61.659 322.621 56.193 308.956C56.193 308.956 65.947 307.168 62.829 295.948C59.711 284.728 49.436 288.083 49.436 288.083C49.436 288.083 44.852 262.496 50.061 254.907C50.061 254.907 61.399 253.254 59.184 247.079C56.969 240.905 51.356 240.278 51.356 240.278C51.356 240.278 60.904 216.392 70.663 209.345C70.663 209.345 80.185 216.206 87.967 234.764C87.967 234.764 82.322 240.224 83.307 244.001C84.292 247.778 89.975 248.357 92.339 244.726C92.339 244.726 101.639 248.908 104.523 269.183C104.523 269.183 93.936 275.985 97.935 282.563C101.934 289.14 110.49 284.125 110.49 284.125C110.49 284.125 113.827 306.38 100.202 318.554C86.576 330.728 81.107 327.428 81.107 327.428Z" fill="url(#paint4_linear_1_967)"/>
<path d="M84.407 333.283L80.705 314.778L61.68 309.4L64.259 307.645L79.871 311.573L75.554 294.834L64.126 292.1L63.025 288.806L74.825 291.286L71.223 278.104L50.6 275.7L51.781 272.201L61.241 274.926L52.84 262.585L54.011 260.71L63.29 274.341L71.602 275.422L67.971 261.99L57.558 254.792L58.821 253.932L69.107 259.869L66.478 239.016L57.423 234.128L57.757 232.283L67.604 235.739L68.002 215.336L70.961 213.322L70.24 233.945L77.235 224.146L79.578 227.588L70.689 237.497L72.076 258.925L87.927 249.752L90.596 250.9L72.591 262.618L75.063 275.087L87.217 266.814L90.894 256.089L93.547 255.631L89.956 267.779L99.522 266.389L98.039 271.172L88.045 270.697L76.857 277.774L79.375 290.077L90.875 276.588L92.651 280.5L80.754 292.103L84.969 308.372L100.96 289.669L103.468 293.353L86.84 311.411L90.111 333.74C90.109 333.741 87.601 337.578 84.407 333.283Z" fill="url(#paint5_linear_1_967)"/>
<path d="M92.844 389.03C92.844 389.03 73.077 392.283 62.664 381.881C62.664 381.881 70.922 376.391 63.631 367.31C56.34 358.229 48.221 365.365 48.221 365.365C48.221 365.365 33.917 343.66 35.711 334.631C35.711 334.631 45.478 328.64 41.007 323.84C36.536 319.04 31.131 320.678 31.131 320.678C31.131 320.678 30.485 294.963 36.673 284.638C36.673 284.638 48.129 287.187 62.599 301.172C62.599 301.172 59.565 308.415 61.96 311.498C64.355 314.581 69.806 312.871 70.546 308.602C70.546 308.602 80.741 308.777 91.388 326.271C91.388 326.271 84.342 336.698 90.612 341.164C96.881 345.631 102.765 337.648 102.765 337.648C102.765 337.648 114.609 356.782 106.89 373.344C99.172 389.905 92.844 389.03 92.844 389.03Z" fill="url(#paint6_linear_1_967)"/>
<path d="M98.186 393.109L87.486 377.564L67.881 380.125L69.558 377.495L85.454 374.947L74.885 361.268L63.306 363.263L60.995 360.67L72.816 358.296L64.307 347.603L44.408 353.527L44.113 349.846L53.881 348.619L41.293 340.592L41.629 338.407L55.532 347.273L63.596 344.988L54.962 334.077L42.555 331.569L43.377 330.281L55.17 331.68L44.529 313.555L34.28 312.635L33.86 310.808L44.272 310.1L36.59 291.194L38.514 288.176L45.985 307.412L48.548 295.649L52.059 297.888L47.799 310.499L57.525 329.643L68.473 314.962L71.378 314.965L59.454 332.834L66.643 343.318L74.548 330.922L73.698 319.616L75.955 318.149L77.447 330.729L85.689 325.678L86.213 330.658L76.842 334.163L69.352 345.079L76.518 355.392L81.766 338.461L84.941 341.356L78.585 356.71L88.875 369.997L96.193 346.504L99.95 348.9L91.792 372.052L103.604 391.281C103.606 391.28 102.815 395.796 98.186 393.109Z" fill="url(#paint7_linear_1_967)"/>
<path d="M274.902 335.339C274.902 335.339 262.965 325.529 263.704 314.201C263.704 314.201 271.087 316.199 272.646 307.354C274.206 298.509 265.939 297.428 265.939 297.428C265.939 297.428 271.255 278.097 277.403 274.547C277.403 274.547 285.843 277.165 286.354 272.132C286.865 267.099 283.166 264.797 283.166 264.797C283.166 264.797 297.751 251.348 306.885 249.687C306.885 249.687 311.231 257.627 310.477 273.13C310.477 273.13 304.734 275.053 304.163 278.009C303.593 280.965 307.356 283.257 310.208 281.516C310.208 281.516 315.29 287.518 310.558 302.587C310.558 302.587 300.929 303.802 301.526 309.709C302.123 315.616 309.744 314.969 309.744 314.969C309.744 314.969 304.669 331.567 291.139 335.51C277.609 339.453 274.902 335.339 274.902 335.339Z" fill="url(#paint8_linear_1_967)"/>
<path d="M275.253 340.51L278.828 326.401L267.375 316.333L269.753 315.968L279.313 323.892L281.873 310.808L274.829 305.107L275.158 302.449L282.545 308.098L284.42 297.727L270.867 289.198L272.852 287.155L278.53 292.196L276.786 280.814L278.224 279.898L280.15 292.469L285.575 295.984L287.513 285.429L282.659 276.958L283.824 276.779L289.009 284.33L294.111 268.944L289.434 262.532L290.28 261.359L295.984 267.037L303.043 252.97L305.771 252.552L298.414 266.665L306.539 262.171L307.026 265.345L297.546 269.286L291.388 284.66L305.468 283.545L306.943 285.231L290.517 287.401L288.092 296.9L299.3 295.182L305.425 288.941L307.424 289.504L300.887 296.765L308.007 298.977L305.385 301.813L298.588 298.16L288.449 299.366L286.111 308.765L298.598 303.2L298.533 306.513L286.397 310.633L283.923 323.357L301.269 315.657L301.79 319.055L284.215 326.095L279.069 342.722C279.069 342.724 276.047 344.561 275.253 340.51Z" fill="url(#paint9_linear_1_967)"/>
<path d="M262.875 346.211C262.875 346.211 257.011 331.916 263.028 322.291C263.028 322.291 268.583 327.549 274.147 320.498C279.711 313.448 272.944 308.58 272.944 308.58C272.944 308.58 286.784 294.075 293.88 293.861C293.88 293.861 300.072 300.166 302.907 295.976C305.742 291.786 303.575 288.006 303.575 288.006C303.575 288.006 322.791 283.072 331.622 285.938C331.622 285.938 331.687 294.99 323.679 308.284C323.679 308.284 317.71 307.257 315.807 309.59C313.904 311.923 316.132 315.724 319.468 315.542C319.468 315.542 321.1 323.235 309.793 334.263C309.793 334.263 300.738 330.771 298.465 336.255C296.192 341.74 303.21 344.781 303.21 344.781C303.21 344.781 290.877 356.993 277.094 354.055C263.311 351.118 262.875 346.211 262.875 346.211Z" fill="url(#paint10_linear_1_967)"/>
<path d="M260.733 350.931L270.566 340.2L265.25 325.908L267.517 326.714L272.181 338.221L280.635 327.911L277.133 319.553L278.682 317.368L282.511 325.842L289.076 317.597L281.181 303.665L283.897 302.807L286.509 309.937L290.366 299.088L292.066 298.963L287.806 310.946L290.918 316.612L297.626 308.235L297.365 298.475L298.476 298.87L299.464 307.976L311.247 296.843L310.166 288.981L311.467 288.349L313.8 296.052L326.681 287.009L329.282 287.933L316.116 296.875L325.401 296.767L324.325 299.793L314.109 298.772L301.402 309.394L314.33 315.084L314.83 317.268L299.337 311.396L292.701 318.612L303.385 322.41L311.735 319.815L313.228 321.258L304.031 324.555L309.253 329.877L305.601 331.132L301.346 324.695L291.846 320.953L285.334 328.123L298.967 329.139L297.34 332.026L284.7 329.904L276.493 339.936L295.417 341.374L294.266 344.613L275.454 342.486L263.044 354.69C263.044 354.69 259.513 354.875 260.733 350.931Z" fill="url(#paint11_linear_1_967)"/>
<path d="M258.548 356.452C258.548 356.452 258.987 341.007 268.392 334.651C268.392 334.651 271.336 341.71 279.282 337.523C287.228 333.336 283.017 326.141 283.017 326.141C283.017 326.141 301.551 318.498 308.124 321.182C308.124 321.182 311.226 329.457 315.517 326.777C319.808 324.097 319.361 319.764 319.361 319.764C319.361 319.764 338.926 323.051 345.835 329.252C345.835 329.252 342.223 337.552 329.509 346.454C329.509 346.454 324.47 343.093 321.784 344.454C319.098 345.815 319.592 350.193 322.716 351.38C322.716 351.38 321.086 359.073 306.278 364.566C306.278 364.566 299.418 357.7 295.116 361.791C290.814 365.882 295.994 371.509 295.994 371.509C295.994 371.509 279.767 377.667 268.361 369.391C256.956 361.114 258.548 356.452 258.548 356.452Z" fill="url(#paint12_linear_1_967)"/>
<path d="M254.675 359.897L268.016 354.078L268.955 338.858L270.7 340.514L270.295 352.924L282.204 346.93L282.394 337.87L284.697 336.501L284.759 345.8L294.104 340.927L292.54 324.99L295.371 325.307L294.866 332.883L302.792 324.531L304.397 325.106L295.642 334.33L296.188 340.771L305.717 335.836L309.438 326.81L310.293 327.621L307.502 336.345L322.788 330.95L324.99 323.325L326.435 323.275L325.442 331.262L340.885 328.222L342.887 330.122L327.226 332.954L335.756 336.622L333.545 338.951L324.622 333.874L308.699 338.427L318.207 348.872L317.778 351.071L306 339.423L297.007 343.327L305.232 351.133L313.917 352.149L314.697 354.074L304.953 353.356L307.567 360.338L303.72 360.004L302.442 352.394L295.277 345.12L286.416 349.031L298.465 355.49L295.807 357.469L285.115 350.402L273.543 356.242L290.257 365.233L287.891 367.726L271.559 358.15L255.265 364.27C255.265 364.27 251.96 363.007 254.675 359.897Z" fill="url(#paint13_linear_1_967)"/>
<path d="M199.429 430.915C253.864 430.915 297.992 426.802 297.992 421.729C297.992 416.656 253.864 412.543 199.429 412.543C144.994 412.543 100.866 416.656 100.866 421.729C100.866 426.802 144.994 430.915 199.429 430.915Z" fill="#E7EDEF"/>
<path d="M374.181 430.915C419.06 430.915 455.442 426.802 455.442 421.729C455.442 416.656 419.06 412.543 374.181 412.543C329.302 412.543 292.92 416.656 292.92 421.729C292.92 426.802 329.302 430.915 374.181 430.915Z" fill="#E7EDEF"/>
<path d="M116.091 412.071H85.641C80.077 412.071 75.525 407.519 75.525 401.955V155.967C75.525 150.403 80.077 145.851 85.641 145.851H116.09C121.654 145.851 126.206 150.403 126.206 155.967V401.955C126.206 407.518 121.654 412.071 116.091 412.071Z" fill="#C9FEC4"/>
<path d="M119.168 163.675H82.564C80.72 163.675 79.211 162.166 79.211 160.322C79.211 158.478 80.72 156.969 82.564 156.969H119.168C121.012 156.969 122.521 158.478 122.521 160.322C122.521 162.166 121.012 163.675 119.168 163.675Z" fill="white"/>
<path d="M119.168 403.223H82.564C80.72 403.223 79.211 401.714 79.211 399.87C79.211 398.026 80.72 396.517 82.564 396.517H119.168C121.012 396.517 122.521 398.026 122.521 399.87C122.521 401.714 121.012 403.223 119.168 403.223Z" fill="white"/>
<path d="M116.203 192.281H85.53C82.055 192.281 79.212 189.438 79.212 185.963V176.007C79.212 172.532 82.055 169.689 85.53 169.689H116.203C119.678 169.689 122.521 172.532 122.521 176.007V185.963C122.521 189.437 119.678 192.281 116.203 192.281Z" fill="white"/>
<path d="M168.548 412.071H138.098C132.534 412.071 127.982 407.519 127.982 401.955V155.967C127.982 150.403 132.534 145.851 138.098 145.851H168.548C174.112 145.851 178.664 150.403 178.664 155.967V401.955C178.664 407.518 174.112 412.071 168.548 412.071Z" fill="#DCA7FC"/>
<path d="M171.626 163.675H135.021C133.177 163.675 131.668 162.166 131.668 160.322C131.668 158.478 133.177 156.969 135.021 156.969H171.626C173.47 156.969 174.979 158.478 174.979 160.322C174.978 162.166 173.469 163.675 171.626 163.675Z" fill="white"/>
<path d="M171.626 403.223H135.021C133.177 403.223 131.668 401.714 131.668 399.87C131.668 398.026 133.177 396.517 135.021 396.517H171.626C173.47 396.517 174.979 398.026 174.979 399.87C174.978 401.714 173.469 403.223 171.626 403.223Z" fill="white"/>
<path d="M168.66 192.281H137.987C134.512 192.281 131.669 189.438 131.669 185.963V176.007C131.669 172.532 134.512 169.689 137.987 169.689H168.66C172.135 169.689 174.978 172.532 174.978 176.007V185.963C174.978 189.437 172.135 192.281 168.66 192.281Z" fill="white"/>
<path d="M429.451 350.554H327.499C318.361 350.554 310.885 343.077 310.885 333.94C310.885 324.802 318.361 317.325 327.499 317.325H429.45C430.062 317.325 430.558 317.821 430.558 318.433V349.446C430.559 350.058 430.063 350.554 429.451 350.554Z" fill="#F0F0F0"/>
<path d="M429.451 350.554H327.499C318.361 350.554 310.885 343.077 310.885 333.94C310.885 324.802 318.361 317.325 327.499 317.325H429.45" stroke="#409DD1" stroke-width="5.5051" stroke-miterlimit="10" stroke-linecap="round"/>
<path d="M425.347 327.363H322.637C322.053 327.363 321.575 326.885 321.575 326.301C321.575 325.717 322.053 325.239 322.637 325.239H425.347C425.931 325.239 426.409 325.717 426.409 326.301C426.409 326.885 425.931 327.363 425.347 327.363Z" fill="white"/>
<path d="M425.347 332.016H322.637C322.053 332.016 321.575 331.538 321.575 330.954C321.575 330.37 322.053 329.892 322.637 329.892H425.347C425.931 329.892 426.409 330.37 426.409 330.954C426.409 331.538 425.931 332.016 425.347 332.016Z" fill="white"/>
<path d="M425.347 336.668H322.637C322.053 336.668 321.575 336.19 321.575 335.606C321.575 335.022 322.053 334.544 322.637 334.544H425.347C425.931 334.544 426.409 335.022 426.409 335.606C426.409 336.19 425.931 336.668 425.347 336.668Z" fill="white"/>
<path d="M425.347 341.32H322.637C322.053 341.32 321.575 340.842 321.575 340.258C321.575 339.674 322.053 339.196 322.637 339.196H425.347C425.931 339.196 426.409 339.674 426.409 340.258C426.409 340.843 425.931 341.32 425.347 341.32Z" fill="white"/>
<path d="M425.347 345.973H322.637C322.053 345.973 321.575 345.495 321.575 344.911C321.575 344.327 322.053 343.849 322.637 343.849H425.347C425.931 343.849 426.409 344.327 426.409 344.911C426.409 345.495 425.931 345.973 425.347 345.973Z" fill="white"/>
<path d="M429.451 423.901H327.499C318.361 423.901 310.885 416.424 310.885 407.286C310.885 398.148 318.361 390.672 327.499 390.672H429.45C430.062 390.672 430.558 391.168 430.558 391.78V422.793C430.559 423.405 430.063 423.901 429.451 423.901Z" fill="#F0F0F0"/>
<path d="M429.451 423.901H327.499C318.361 423.901 310.885 416.424 310.885 407.286C310.885 398.148 318.361 390.672 327.499 390.672H429.45" stroke="#D14040" stroke-width="5.5051" stroke-miterlimit="10" stroke-linecap="round"/>
<path d="M425.347 400.71H322.637C322.053 400.71 321.575 400.232 321.575 399.648C321.575 399.064 322.053 398.586 322.637 398.586H425.347C425.931 398.586 426.409 399.064 426.409 399.648C426.409 400.232 425.931 400.71 425.347 400.71Z" fill="white"/>
<path d="M425.347 405.362H322.637C322.053 405.362 321.575 404.884 321.575 404.3C321.575 403.716 322.053 403.238 322.637 403.238H425.347C425.931 403.238 426.409 403.716 426.409 404.3C426.409 404.884 425.931 405.362 425.347 405.362Z" fill="white"/>
<path d="M425.347 410.014H322.637C322.053 410.014 321.575 409.536 321.575 408.952C321.575 408.368 322.053 407.89 322.637 407.89H425.347C425.931 407.89 426.409 408.368 426.409 408.952C426.409 409.537 425.931 410.014 425.347 410.014Z" fill="white"/>
<path d="M425.347 414.667H322.637C322.053 414.667 321.575 414.189 321.575 413.605C321.575 413.021 322.053 412.543 322.637 412.543H425.347C425.931 412.543 426.409 413.021 426.409 413.605C426.409 414.189 425.931 414.667 425.347 414.667Z" fill="white"/>
<path d="M425.347 419.319H322.637C322.053 419.319 321.575 418.841 321.575 418.257C321.575 417.673 322.053 417.195 322.637 417.195H425.347C425.931 417.195 426.409 417.673 426.409 418.257C426.409 418.841 425.931 419.319 425.347 419.319Z" fill="white"/>
<path d="M321.32 386.68H423.271C432.409 386.68 439.885 379.203 439.885 370.066C439.885 360.928 432.409 353.452 423.271 353.452H321.32C320.708 353.452 320.212 353.948 320.212 354.56V385.573C320.212 386.184 320.708 386.68 321.32 386.68Z" fill="#F0F0F0"/>
<path d="M321.32 386.68H423.271C432.409 386.68 439.885 379.203 439.885 370.066C439.885 360.928 432.409 353.452 423.271 353.452H321.32" stroke="#601E89" stroke-width="5.5051" stroke-miterlimit="10" stroke-linecap="round"/>
<path d="M325.424 363.489H428.134C428.718 363.489 429.196 363.011 429.196 362.427C429.196 361.843 428.718 361.365 428.134 361.365H325.424C324.84 361.365 324.362 361.843 324.362 362.427C324.362 363.011 324.84 363.489 325.424 363.489Z" fill="white"/>
<path d="M325.424 368.141H428.134C428.718 368.141 429.196 367.663 429.196 367.079C429.196 366.495 428.718 366.017 428.134 366.017H325.424C324.84 366.017 324.362 366.495 324.362 367.079C324.362 367.663 324.84 368.141 325.424 368.141Z" fill="white"/>
<path d="M325.424 372.794H428.134C428.718 372.794 429.196 372.316 429.196 371.732C429.196 371.148 428.718 370.67 428.134 370.67H325.424C324.84 370.67 324.362 371.148 324.362 371.732C324.362 372.316 324.84 372.794 325.424 372.794Z" fill="white"/>
<path d="M325.424 377.446H428.134C428.718 377.446 429.196 376.968 429.196 376.384C429.196 375.8 428.718 375.322 428.134 375.322H325.424C324.84 375.322 324.362 375.8 324.362 376.384C324.362 376.968 324.84 377.446 325.424 377.446Z" fill="white"/>
<path d="M325.424 382.098H428.134C428.718 382.098 429.196 381.62 429.196 381.036C429.196 380.452 428.718 379.974 428.134 379.974H325.424C324.84 379.974 324.362 380.452 324.362 381.036C324.362 381.621 324.84 382.098 325.424 382.098Z" fill="white"/>
<path d="M174.634 271.5L150.09 273.863C140.063 274.829 131.069 267.415 130.104 257.388L126.006 214.825C125.041 204.798 132.454 195.804 142.481 194.839L167.025 192.476C177.052 191.511 186.046 198.924 187.011 208.951L191.109 251.514C192.075 261.541 184.661 270.535 174.634 271.5Z" fill="#A7E4FC"/>
<path d="M150.827 404.08L151.709 411.783C151.709 411.783 158.689 417.509 162.842 412.368L161.355 402.847L150.827 404.08Z" fill="#F5B399"/>
<path d="M182.912 401.64L183.795 409.343C183.795 409.343 190.775 415.069 194.928 409.928L193.441 400.407L182.912 401.64Z" fill="#F5B399"/>
<path d="M144.987 278.968C144.987 278.968 143.298 300.357 153.648 303.379C163.998 306.401 181.235 306.222 183.755 301.963C186.276 297.704 186.837 276.747 186.837 276.747L144.987 278.968Z" fill="#63438F"/>
<path d="M144.967 279.349L141.898 337.766L149.254 403.998C149.254 403.998 153.556 412.646 165.774 404.866C165.774 404.866 161.218 346.438 161.455 341.09C161.692 335.743 165.973 297.269 165.973 297.269L144.967 279.349Z" fill="#63438F"/>
<path d="M186.838 276.747C186.838 276.747 196.641 339.558 195.934 346.379C195.227 353.2 195.318 402.48 195.318 402.48C195.318 402.48 190.5 408.079 180.066 405.617L177.639 348.066C177.639 348.066 169.613 303.453 168.674 302.147C167.736 300.841 186.838 276.747 186.838 276.747Z" fill="#63438F"/>
<path d="M183.675 408.302C183.675 408.302 181.271 416.782 183.084 419.557C184.897 422.332 197.482 423.251 198.85 422.715C200.218 422.18 217.054 425.972 220.788 424.14C224.521 422.308 216.182 417.084 212.485 414.593C208.788 412.102 194.373 406.367 194.373 406.367C194.373 406.367 186.364 410.789 183.675 408.302Z" fill="#292E68"/>
<path d="M151.508 410.029C151.508 410.029 158.684 412.219 162.426 409.702C162.426 409.702 166.888 421.195 164.791 423.573C162.694 425.951 158.695 425.55 159.198 426.916C159.701 428.282 150.257 433.146 143.164 429.71C136.071 426.274 143.842 421.855 151.508 410.029Z" fill="#292E68"/>
<path d="M196.462 200.144C196.462 200.144 215.067 203.713 217.106 203.785C219.145 203.856 243.254 194.86 246.874 195.153C250.494 195.446 236.611 212.724 235.524 213.77C234.437 214.816 216.596 219.929 215.067 220.049C213.538 220.168 191.046 216.166 187.765 214.471C184.483 212.776 189.45 198.821 196.462 200.144Z" fill="#F5B399"/>
<path d="M120.684 239.18C120.684 239.18 119.707 266.901 123.795 269.582C127.883 272.263 134.969 265.033 135.242 238.805C135.514 212.576 120.684 239.18 120.684 239.18Z" fill="#F5B399"/>
<path d="M177.891 196.615C177.891 196.615 187.843 196.196 197.927 198.254C197.927 198.254 203.65 213.276 191.113 221.648C191.113 221.648 181.566 224.362 177.89 215.063C174.215 205.763 177.891 196.615 177.891 196.615Z" fill="#682929"/>
<path d="M126.189 206.596C126.189 206.596 116.981 227.294 121.069 240.649C121.069 240.649 127.61 246.378 136.332 243.241C136.332 243.241 138.622 232.688 138.84 231.081C139.057 229.474 126.189 206.596 126.189 206.596Z" fill="#682929"/>
<path d="M147.084 183.412L148.398 200.879C148.398 200.879 153.871 204.209 158.03 202.685C162.19 201.161 162.409 200.307 162.409 200.307L158.687 181.357L147.084 183.412Z" fill="#F5B399"/>
<path d="M134.168 164.281C134.168 164.281 131.103 155.744 134.168 148.132C137.233 140.52 159.563 139.226 162.628 146.222C165.693 153.217 165.693 157.571 165.693 157.571C165.693 157.571 169.196 153.168 171.604 157.571C174.012 161.974 168.101 166.217 168.101 166.217C168.101 166.217 169.852 187.588 156.936 189.339C144.02 191.09 135.701 173.029 135.701 173.029C135.701 173.029 130.885 173.309 129.352 169.721C127.819 166.133 128.914 161.991 134.168 164.281Z" fill="#FFC7B1"/>
<path d="M132.088 144.679C132.088 144.679 131.431 139.761 133.401 140.25C135.371 140.739 134.55 142.448 134.55 142.448C134.55 142.448 143.416 135.978 148.014 135.978L147.084 137.456C147.084 137.456 160 135.123 169.688 146.223C169.688 146.223 161.702 152.397 150.836 149.606L153.105 151.112C153.105 151.112 144.403 154.368 135.865 149.77L136.029 157.572C136.029 157.572 135.536 164.489 136.522 167.556C137.507 170.622 136.084 169.107 134.168 164.282C132.253 159.457 131.983 151.111 131.983 151.111C131.983 151.111 128.969 151.083 129.789 149.277C130.61 147.471 132.252 147.471 132.252 147.471C132.252 147.471 127.655 143.365 132.088 144.679Z" fill="#FFB84E"/>
<path d="M164.926 146.222C164.926 146.222 166.732 160.9 166.732 161.656C166.732 162.412 160.985 148.948 160 146.978C159.015 145.007 164.926 146.222 164.926 146.222Z" fill="#FFB84E"/>
<path d="M155.841 158.138C155.841 158.138 160.548 157.547 161.424 157.571C162.3 157.595 164.16 158.902 164.489 159.672C164.817 160.442 162.519 159.25 161.862 159.134C161.205 159.018 156.389 160.626 155.842 160.369C155.294 160.113 154.331 158.321 155.841 158.138Z" fill="#FFB84E"/>
<path d="M147.566 158.402C147.566 158.402 142.998 159.68 142.2 160.041C141.402 160.403 140.193 162.328 140.188 163.165C140.183 164.002 141.841 162.013 142.402 161.652C142.963 161.291 148.026 160.907 148.431 160.459C148.836 160.011 149.029 157.986 147.566 158.402Z" fill="#FFB84E"/>
<path d="M155.031 160.839C155.031 160.839 154.309 161.927 154.746 163.538C155.184 165.149 158.687 172.373 157.811 173.03C156.935 173.687 154.746 175.438 153.323 173.468" stroke="#F5B399" stroke-width="0.9141" stroke-miterlimit="10" stroke-linecap="round"/>
<path d="M150.164 164.225C150.164 164.954 149.573 165.546 148.843 165.546C148.114 165.546 147.522 164.955 147.522 164.225C147.522 163.495 148.113 162.904 148.843 162.904C149.572 162.904 150.164 163.495 150.164 164.225Z" fill="#292E68"/>
<path d="M163.311 163.241C163.311 163.97 162.72 164.562 161.99 164.562C161.26 164.562 160.669 163.971 160.669 163.241C160.669 162.511 161.26 161.92 161.99 161.92C162.72 161.92 163.311 162.512 163.311 163.241Z" fill="#292E68"/>
<path d="M156.388 176.629C156.388 176.629 150.711 177.602 148.843 176.629C146.975 175.656 147.791 178.973 150.448 180.489C153.104 182.005 156.498 180.01 156.388 176.629Z" fill="#732224"/>
<path d="M148.843 176.629C147.883 176.129 147.636 176.764 147.979 177.703C150.244 177.997 153.644 178.33 156.189 178.104C156.328 177.65 156.405 177.159 156.388 176.629C156.388 176.629 150.711 177.601 148.843 176.629Z" fill="white"/>
<path d="M150.447 180.489C151.927 181.334 153.635 181.086 154.839 180.119C153.614 178.87 152.365 179.573 152.365 179.573C149.769 178.603 149.254 179.548 149.242 179.571C149.588 179.909 149.988 180.227 150.447 180.489Z" fill="#FF7E4B"/>
<path d="M147.376 194.169C147.376 194.169 146.945 198.782 155.034 197.925C163.123 197.068 161.92 193.317 161.92 193.317C161.92 193.317 181.577 196.511 183.86 199.138C186.143 201.766 187.057 224.165 186.143 229.863C185.23 235.561 186.493 276.662 186.493 276.662C186.493 276.662 171.991 291.733 144.816 281.457C144.816 281.457 142.232 249.758 139.948 245.191C137.665 240.624 123.448 211.783 126.188 206.596C128.928 201.409 147.376 194.169 147.376 194.169Z" fill="#89311E"/>
<path d="M147.729 222.016C147.729 222.016 149.455 251.706 138.839 269.582C138.839 269.582 139.67 272.332 142.327 272.332C144.984 272.332 157.493 245.746 154.407 220.916C154.407 220.916 151.087 217.284 147.729 222.016Z" fill="#5967B2"/>
<path d="M120.581 260.507C120.581 260.507 120.244 250.256 127.913 244.941C135.582 239.626 140.079 219.079 140.079 219.079C140.079 219.079 146.484 220.507 148.095 223.887C149.705 227.266 137.013 261.572 132.721 266.543C128.428 271.514 125.158 272.945 124.34 272.332C123.522 271.719 121.32 267.692 120.581 260.507Z" fill="#FFC7B1"/>
<path d="M140.079 219.079C140.079 219.079 140.828 210.26 140.828 209.851C140.828 209.442 143.281 211.155 143.281 211.155C143.281 211.155 149.549 206.099 150.231 205.59C150.912 205.081 153.006 208.205 152.886 208.835C152.548 210.6 154.559 210.811 154.507 212.307C154.456 213.803 155.706 214.772 155.36 216.382C154.932 218.369 155.325 219.905 155.374 220.685C155.423 221.466 149.066 228.74 147.4 229.652C145.734 230.564 139.466 232.396 140.079 219.079Z" fill="#FFC7B1"/>
<path d="M131.077 202.191C131.077 202.191 134.628 204.555 143.282 211.154L150.232 205.589C150.232 205.589 145.024 197.889 141.734 196.579C138.444 195.27 131.077 202.191 131.077 202.191Z" fill="#5967B2"/>
<path d="M170.386 194.894C170.386 194.894 170.389 236.305 185.998 256.567C185.998 256.567 187.986 254.748 187.744 251.582C187.502 248.416 179.734 238.369 179.734 227.245C179.734 216.12 180.552 196.416 180.552 196.416C180.552 196.416 174.323 193.087 170.386 194.894Z" fill="#5967B2"/>
<path d="M285.144 269.695C285.144 269.695 256.838 276.827 254.125 269.695C251.412 262.563 276.187 254.92 278.16 255.657C280.132 256.395 285.144 269.695 285.144 269.695Z" fill="#292E68"/>
<path d="M287.457 191.896C287.457 191.896 296.517 201.647 297.866 206.758C299.215 211.868 289.385 267.189 285.144 269.695L277.041 257.159C277.041 257.159 291.312 226.089 287.457 191.896Z" fill="#1E4A89"/>
<path d="M266.588 186.726C266.588 186.726 268.567 185.871 272.808 186.726C277.049 187.581 285.337 188.309 287.457 191.897C289.577 195.485 287.431 265.678 269.229 259.977C251.026 254.276 246.786 228.447 247.171 224.399C247.557 220.35 266.588 186.726 266.588 186.726Z" fill="#292E68"/>
<path d="M268.33 403.34C268.33 403.34 271.056 412.541 269.352 417.483C267.648 422.424 252.483 421.232 249.587 421.232C246.69 421.232 230.333 423.277 228.458 419.699C226.584 416.121 253.676 407.771 256.232 403.341C258.788 398.91 267.275 401.636 268.33 403.34Z" fill="#D19740"/>
<path d="M253.07 407.992C253.07 407.992 255.796 417.193 254.092 422.135C252.388 427.076 237.223 425.884 234.327 425.884C231.43 425.884 215.073 427.929 213.198 424.351C211.324 420.773 238.416 412.424 240.972 407.993C243.528 403.562 252.014 406.288 253.07 407.992Z" fill="#FFB84E"/>
<path d="M231.651 261.817C231.651 261.817 228.898 323.819 229.057 327.908C229.215 331.997 255.832 405.948 255.832 405.948C255.832 405.948 262.546 407.652 268.202 403.903C273.858 400.154 254.294 332.563 254.704 322.397C255.114 312.232 262.971 264.88 259.554 261.634C256.137 258.388 231.651 261.817 231.651 261.817Z" fill="#292E68"/>
<path d="M272.949 264.522C272.949 264.522 274.767 272.246 272.949 279.744C271.131 287.241 246.192 332.997 245.965 340.948C245.738 348.9 255.976 406.288 254.125 409.696C252.275 413.104 239.325 410.377 237.734 409.696C236.144 409.014 230.97 341.857 229.834 337.995C228.698 334.133 237.507 286.559 237.28 276.563C237.053 266.567 243.641 259.978 243.641 259.978C243.641 259.978 272.267 259.723 272.949 264.522Z" fill="#1E4A89"/>
<path d="M244.656 189.364C244.656 189.364 240.042 186.766 238.117 187.7C236.192 188.634 232.703 195.575 230.795 206.534C228.886 217.494 228.508 232.35 228.508 232.35C228.508 232.35 222.593 232.107 219.895 232.35C217.196 232.594 213.056 233.324 213.056 233.324C213.056 233.324 217.683 236.49 217.44 248.911C217.44 248.911 223.768 249.639 226.329 248.911C228.891 248.183 235.218 249.319 238.019 248.202C240.82 247.085 248.17 232.528 248.248 225.409C248.326 218.291 250.927 201.176 250.074 198.01C249.222 194.844 244.656 189.364 244.656 189.364Z" fill="#FEF3C4"/>
<path d="M222.172 152.891C222.172 152.891 215.718 161.415 220.954 177.489C226.19 193.563 230.34 202.209 229.057 212.681C227.774 223.153 248.231 227.659 251.032 206.653C253.833 185.647 244.091 175.418 243.725 175.175C243.36 174.932 222.172 152.891 222.172 152.891Z" fill="#292E68"/>
<path d="M268.202 187.497L281.171 195.146C281.171 195.146 276.056 219.988 268.202 229.851C260.348 239.714 276.422 261.801 274.686 265.096C272.951 268.392 231.266 267.844 231.651 261.816C232.036 255.788 241.168 231.688 240.255 227.299C239.342 222.91 232.834 220.06 234.535 211.621C236.236 203.182 249.399 190.514 249.399 190.514C249.399 190.514 260.275 182.822 268.202 187.497Z" fill="#FFB84E"/>
<path d="M258.418 150.648C258.418 150.648 265.023 170.415 266.741 182.36C267.569 188.114 252.311 190.945 248.658 178.889C245.005 166.833 258.418 150.648 258.418 150.648Z" fill="#292E68"/>
<path d="M263.818 180.899C263.818 180.899 254.951 185.526 249.399 193.563C243.847 201.6 241.348 214.935 243.194 214.813C245.04 214.691 250.91 204.279 250.91 204.279C250.91 204.279 267.349 186.257 263.818 180.899Z" fill="#FEEDA7"/>
<path d="M256.694 169.665C257.342 170.476 258.338 179.985 263.818 186.926C269.298 193.867 254.502 208.114 251.032 206.653C247.561 205.192 250.484 192.04 245.552 182.907C240.62 173.775 252.676 164.642 256.694 169.665Z" fill="#F5B399"/>
<path d="M221.989 158.249C221.989 158.249 222.354 163.181 223.998 167.565C225.642 171.949 225.459 174.689 226.921 178.89C228.382 183.091 233.862 188.624 238.611 190.516C243.36 192.407 250.301 186.562 254.502 180.717C258.703 174.872 256.694 169.666 256.694 169.666C256.694 169.666 257.973 170.945 259.434 167.474C260.895 164.003 260.713 155.601 256.694 155.236C252.676 154.871 253.406 156.697 253.406 156.697C253.406 156.697 250.575 141.08 233.314 144.002C222.785 145.784 221.211 153.208 221.989 158.249Z" fill="#FFC7B1"/>
<path d="M243.786 209.818L247.367 215.467L225.487 219.478C225.487 219.478 210.711 216.24 210.825 212.005C210.825 212.005 210.13 210.489 216.156 210.456C222.182 210.424 243.786 209.818 243.786 209.818Z" fill="#FFFDFE"/>
<path d="M260.313 258.351L247.961 214.649H212.246L223.839 258.351H260.313Z" fill="#682929"/>
<path d="M213.602 214.649C213.602 214.649 210.881 213.726 211.563 211.81C212.245 209.894 217.019 210.533 217.019 210.533L244.468 209.955L241.518 209.362L213.601 209.955C213.601 209.955 206.789 211.102 212.244 214.649" fill="#682929"/>
<path d="M210.265 212.742L218.684 253.856L223.839 258.351L220.514 221.315L210.265 212.742Z" fill="#682929"/>
<path d="M240.255 137.243C240.255 137.243 231.213 144.184 231.213 148.933C231.213 153.682 242.995 149.116 253.406 156.696C253.406 156.696 256.471 151.873 259.761 158.519C259.761 158.519 259.069 134.686 240.255 137.243Z" fill="#292E68"/>
<path d="M233.314 144.002C233.314 144.002 234.593 147.107 230.209 150.395C225.825 153.683 223.816 153.5 221.989 158.249C220.163 162.998 220.893 173.592 224.181 185.648C227.469 197.704 225.302 213.047 221.819 214.143C221.819 214.143 226.398 202.681 221.819 187.497C217.24 172.313 216.196 158.431 221.011 150.942C225.825 143.453 227.469 138.521 240.256 137.243C240.256 137.243 236.784 144.002 233.314 144.002Z" fill="#292E68"/>
<path d="M268.202 187.497C268.202 187.497 266.741 183.09 263.818 180.899C263.818 180.899 250.908 199.469 245.965 202.91C245.965 202.91 245.954 212.744 247.78 215.484C249.606 218.223 267.836 193 268.202 187.497Z" fill="#FEEDA7"/>
<path d="M277.041 191.272C277.041 191.272 269.378 187.606 268.201 187.497C267.024 187.388 247.152 207.435 250.245 222.855C253.338 238.275 258.058 246.371 259.553 246.371C261.048 246.371 265.91 245.022 265.021 242.901C264.132 240.78 256.007 230.805 257.082 219.987C258.158 209.17 274.721 192.072 277.041 191.272Z" fill="#5967B2"/>
<path d="M231.67 165.373C231.67 165.373 232.857 167.474 232.766 170.031C232.675 172.588 233.168 178.616 233.351 179.529C233.534 180.442 237.826 181.173 238.009 178.798" stroke="#F5B399" stroke-width="1.0731" stroke-miterlimit="10" stroke-linecap="round"/>
<path d="M235.506 183.7C235.78 183.822 240.164 184.644 242.173 180.397" stroke="#F5B399" stroke-width="1.0731" stroke-miterlimit="10" stroke-linecap="round"/>
<path d="M236.328 163.972C236.328 163.972 240.986 162.145 242.173 161.963C243.36 161.78 246.222 162.511 246.1 161.963C245.978 161.415 242.444 160.806 241.045 160.745C239.646 160.684 235.749 162.358 235.749 162.358C235.749 162.358 235.384 163.303 236.328 163.972Z" fill="#292E68"/>
<path d="M230.121 166.157C230.121 166.157 226.473 166.676 225.717 167.031C224.961 167.387 223.855 169.169 223.585 168.685C223.315 168.201 224.86 166.231 225.582 165.594C226.304 164.957 229.445 164.639 229.445 164.639C229.445 164.639 230.222 165.23 230.121 166.157Z" fill="#292E68"/>
<path d="M240.255 166.438C240.255 167.195 240.868 167.808 241.625 167.808C242.382 167.808 242.995 167.195 242.995 166.438C242.995 165.681 242.382 165.068 241.625 165.068C240.868 165.068 240.255 165.682 240.255 166.438Z" fill="#292E68"/>
<path d="M228.473 169.607C228.473 170.364 229.086 170.977 229.843 170.977C230.6 170.977 231.213 170.364 231.213 169.607C231.213 168.85 230.6 168.237 229.843 168.237C229.087 168.236 228.473 168.85 228.473 169.607Z" fill="#292E68"/>
<path d="M255.831 168.768C255.831 169.796 256.664 170.629 257.692 170.629C258.72 170.629 259.553 169.796 259.553 168.768C259.553 167.74 258.72 166.907 257.692 166.907C256.665 166.906 255.831 167.74 255.831 168.768Z" fill="white"/>
<path d="M259.554 161.293C259.554 161.293 258.642 157.214 256.146 157.762C253.65 158.31 256.146 163.181 256.146 163.181C256.146 163.181 257.486 161.902 257.973 162.755C258.46 163.607 257.296 164.277 257.296 164.277C257.296 164.277 256.683 165.677 257.693 165.799C258.704 165.921 259.069 164.638 259.069 164.638" stroke="#F5B399" stroke-width="0.7154" stroke-miterlimit="10" stroke-linecap="round"/>
<path d="M285.642 204.134C285.642 204.134 284.108 193.693 276.072 193.261C268.036 192.829 267.079 234.989 267.079 234.989C267.079 234.989 254.816 235.477 248.479 236.507C241.698 237.609 229.416 238.127 229.416 238.127C229.416 238.127 228.4 233.341 224.479 230.613C220.558 227.885 219.948 223.516 218.413 223.516C216.879 223.516 215.878 226.525 218.095 229.935C220.311 233.345 219.357 233.865 219.357 233.865C219.357 233.865 213.731 232.672 213.39 233.694C213.049 234.717 214.072 236.422 214.072 236.422C214.072 236.422 212.739 237.627 213.321 239.496C213.902 241.366 212.617 243.241 213.174 244.605C213.731 245.969 215.436 246.48 215.436 246.48C215.436 246.48 216.288 249.037 217.652 248.696C219.016 248.355 228.393 246.821 229.586 245.968C230.779 245.116 271.662 251.585 275.072 248.147C278.481 244.711 285.895 230.56 285.642 204.134Z" fill="#FFC7B1"/>
<path d="M281.209 194.245C281.209 194.245 276.902 191.82 275.106 192.691C273.31 193.563 270.053 200.041 268.271 210.271C266.489 220.501 266.136 234.367 266.136 234.367C266.136 234.367 260.615 234.14 258.097 234.367C255.578 234.594 251.714 235.276 251.714 235.276C251.714 235.276 256.033 238.231 255.806 249.825C255.806 249.825 261.712 250.505 264.103 249.825C266.494 249.145 272.4 250.206 275.014 249.163C277.628 248.12 284.489 234.533 284.562 227.889C284.635 221.245 287.063 205.271 286.267 202.315C285.471 199.36 281.209 194.245 281.209 194.245Z" fill="#FEF3C4"/>
<path d="M264.899 250.128C264.899 250.128 265.24 236.755 259.784 233.8C259.784 233.8 250.805 234.596 250.464 234.937C250.123 235.278 255.472 238.46 255.184 249.713C255.184 249.713 256.488 251.68 264.899 250.128Z" fill="#FEEDA7"/>
<path d="M374.466 354.85C374.466 354.85 367.424 374.831 370.845 381.273C374.265 387.714 383.403 381.594 383.464 378.313C383.525 375.032 384.532 366.98 387.35 359.734C390.168 352.487 383.296 345.404 380.103 347.149C376.909 348.893 374.466 354.85 374.466 354.85Z" fill="#292E68"/>
<path d="M403.988 356.774C403.988 356.774 411.03 376.755 407.61 383.197C404.19 389.639 395.052 383.518 394.991 380.237C394.93 376.956 393.923 368.904 391.105 361.658C388.287 354.411 395.159 347.328 398.352 349.073C401.545 350.818 403.988 356.774 403.988 356.774Z" fill="#292E68"/>
<path d="M397.425 342.483L395.166 356.997C395.166 356.997 398.072 362.593 401.953 360.844C405.834 359.095 407.603 343.357 407.603 343.357C407.603 343.357 403.182 340.21 397.425 342.483Z" fill="#F5B399"/>
<path d="M370.043 347.846C370.043 347.846 374.815 357.406 376.975 358.571C379.136 359.737 387.405 356.239 378.024 340.851C368.644 325.462 370.043 347.846 370.043 347.846Z" fill="#F5B399"/>
<path d="M358.964 286.21C358.964 286.21 348.351 320.016 380.182 320.337C405.158 320.589 410.566 309.764 409.979 306.415C409.392 303.066 407.063 286.48 407.063 286.48L358.964 286.21Z" fill="#1F234F"/>
<path d="M342.592 239.844C342.592 239.844 332.919 254.909 333.263 261.992C333.607 269.075 347.226 265.036 347.852 263.701C348.478 262.366 354.873 249.734 353.543 245.118C352.213 240.502 345.25 237.264 342.592 239.844Z" fill="#F5B399"/>
<path d="M374.785 214.419C374.785 214.419 361.107 214.339 351.545 222.192C341.983 230.046 338.599 242.435 338.599 242.435C338.599 242.435 335.372 249.229 345.337 252.016C345.337 252.016 351.198 256.231 358.566 247.212C363.725 240.898 383.873 213.361 374.785 214.419Z" fill="#FAFCA7"/>
<path d="M373.42 208.037C373.42 208.037 373.77 215.182 373.42 216.462C373.07 217.742 376.709 240.126 384.087 240.126C390.103 240.126 395.279 219.204 395.454 216.462C395.629 213.72 393.356 204.976 393.356 204.976C393.356 204.976 373.42 199.611 373.42 208.037Z" fill="#F5B399"/>
<path d="M422.761 249.214C422.761 249.214 428.656 271.43 426.657 280.68C424.657 289.93 412.323 281.281 412.026 279.369C411.729 277.457 408.46 259.248 410.842 253.489C413.223 247.731 420.775 245.165 422.761 249.214Z" fill="#F5B399"/>
<path d="M391.785 224.601C391.785 224.601 384.007 234.153 384.282 238.312C384.557 242.471 382.193 298.872 382.338 303.069C382.484 307.266 408.805 302.719 409.738 294.325C410.671 285.931 406.841 242.05 409.038 238.312C415.628 227.104 407.652 224.557 397.11 217.769C397.11 217.769 395.515 224.451 391.785 224.601Z" fill="#FAFCA7"/>
<path d="M404.496 222.368C404.496 222.368 412.518 222.106 420.213 231.797C427.907 241.488 428.607 254.311 428.607 254.311C428.607 254.311 426.88 259.818 416.552 260.445C416.552 260.445 412.272 261.772 408.082 254.777C403.891 247.782 395.834 219.42 404.496 222.368Z" fill="#FAFCA7"/>
<path d="M399.607 189.68C399.607 189.68 402.973 181.576 404.547 183.046C406.121 184.516 404.651 195.875 400.14 195.792C395.628 195.708 399.607 189.68 399.607 189.68Z" fill="#F5B399"/>
<path d="M368.018 189.68C368.018 189.68 364.652 181.576 363.078 183.046C361.504 184.516 362.974 195.875 367.485 195.792C371.997 195.708 368.018 189.68 368.018 189.68Z" fill="#F5B399"/>
<path d="M376.917 225.286C376.917 225.286 384.695 234.838 384.42 238.997C384.145 243.156 384.573 298.873 384.427 303.069C384.281 307.266 359.391 305.32 358.459 296.926C357.526 288.532 360.596 243.231 359.663 238.997C358.73 234.762 359.095 224.558 369.638 217.769C369.638 217.769 373.186 225.136 376.917 225.286Z" fill="#FAFCA7"/>
<path d="M366.075 181.369C366.075 181.369 365.609 200.106 367.707 204.102C369.805 208.098 374.119 213.297 381.114 215.17C388.109 217.043 396.969 207.575 398.718 205.268C400.467 202.961 402.099 185.566 401.05 181.369C400 177.172 372.72 171.926 366.075 181.369Z" fill="#FFC7B1"/>
<path d="M401.278 174.374C401.278 174.374 403.964 179.907 395.337 184.252C386.71 188.597 368.013 186.392 366.053 187.028C364.093 187.664 362.694 177.906 371.321 169.845C379.948 161.783 400.225 164.115 401.278 174.374Z" fill="#63438F"/>
<path d="M364.576 184.252C364.576 184.252 365.634 194.151 366.053 194.783C366.472 195.415 368.523 184.252 368.523 184.252C368.523 184.252 365.7 181.539 364.576 184.252Z" fill="#63438F"/>
<path d="M398.776 180.319C398.776 180.319 399.65 188.468 399.65 190.951C399.65 193.434 406.054 183.117 401.278 174.373C396.503 165.63 398.776 180.319 398.776 180.319Z" fill="#63438F"/>
<path d="M386.65 196.12L386.55 193.852C386.55 193.852 392.649 193.224 393.946 193.526C395.243 193.828 396.646 195.335 396.345 195.731C396.044 196.127 393.398 194.326 392.374 194.921C391.349 195.517 386.65 196.12 386.65 196.12Z" fill="#63438F"/>
<path d="M379.123 195.703L379.296 193.439C379.296 193.439 373.221 192.613 371.915 192.873C370.609 193.133 369.157 194.594 369.445 194.999C369.733 195.404 372.436 193.691 373.441 194.319C374.445 194.947 379.123 195.703 379.123 195.703Z" fill="#63438F"/>
<path d="M380.181 194.809L381.813 197.364C381.813 197.364 380.88 204.568 380.997 205.151C381.114 205.734 382.603 206.783 383.665 206.783C384.727 206.783 386.592 206.059 386.592 206.059" stroke="#F5B399" stroke-width="0.9736" stroke-miterlimit="10" stroke-linecap="round"/>
<path d="M377.617 196.933C377.617 197.324 376.983 197.641 376.201 197.641C375.419 197.641 374.785 197.324 374.785 196.933C374.785 196.542 375.419 196.225 376.201 196.225C376.983 196.225 377.617 196.542 377.617 196.933Z" fill="#63438F"/>
<path d="M389.595 198.072C390.377 198.072 391.011 197.755 391.011 197.364C391.011 196.973 390.377 196.656 389.595 196.656C388.813 196.656 388.179 196.973 388.179 197.364C388.179 197.755 388.813 198.072 389.595 198.072Z" fill="#63438F"/>
<path d="M378.491 208.037C378.491 208.037 381.692 210.835 388.179 208.736" stroke="#F5B399" stroke-width="0.9736" stroke-miterlimit="10" stroke-linecap="round"/>
<path d="M395.205 213.545C395.205 213.545 393.846 220.788 388.18 226.085C388.18 226.085 391.082 230.56 392.656 231.233C394.23 231.906 397.552 222.288 399.126 220.19C400.7 218.092 395.205 213.545 395.205 213.545Z" fill="#FAFCA7"/>
<path d="M333.21 260.563C333.21 260.563 339.628 248.744 351.986 253.886C364.344 259.028 375.739 261.947 375.716 264.045C375.694 266.143 373.95 270.322 370.253 270.283C366.557 270.244 329.906 273.017 333.21 260.563Z" fill="#FFC7B1"/>
<path d="M347.072 258.662C347.072 258.662 347.999 249.841 351.998 251.055C354.176 251.716 372.102 257.048 375.716 260.546C375.716 260.546 389.741 252.225 403.964 254.977C403.964 254.977 407.595 256.589 406.995 260.42L374.935 268.222L347.072 258.662Z" fill="white"/>
<path d="M345.79 254.989C345.79 254.989 366.821 259.286 375.716 264.045C375.716 264.045 396.6 257.527 408.681 259.167L398.236 282.392C398.236 282.392 377.985 286.444 376.202 286.116C374.419 285.788 356.458 280.52 356.458 280.52C356.458 280.52 342.698 254.319 345.79 254.989Z" fill="#3D6829"/>
<path d="M426.847 281.542C426.847 281.542 422.96 268.666 409.816 271.194C396.672 273.722 384.922 274.268 384.518 276.327C384.114 278.386 384.974 282.832 388.601 283.544C392.23 284.256 427.556 294.407 426.847 281.542Z" fill="#FFC7B1"/>
<path d="M391.011 277.373C391.011 277.373 392.655 272.927 389.595 270.866C386.535 268.805 382.338 265.482 381.638 264.958C380.938 264.433 378.267 267.938 381.638 269.679C385.009 271.42 383.212 272.302 383.212 272.302C383.212 272.302 376.613 271.004 375.716 270.866C374.819 270.728 364.465 266.108 364.576 268.28C364.687 270.452 367.474 271.139 367.474 271.139C367.474 271.139 360.484 269.082 360.831 270.517C361.179 271.952 364.576 274.051 364.576 274.051C364.576 274.051 362.727 276.674 364.576 277.374C366.425 278.073 371.93 281.921 377.309 282.27C382.688 282.62 385.802 282.095 388.179 282.27C390.557 282.444 391.011 277.373 391.011 277.373Z" fill="#FFC7B1"/>
<path d="M350.92 252.017C350.92 252.017 367.999 255.881 374.761 261.556" stroke="#F0F0F0" stroke-width="0.6849" stroke-miterlimit="10"/>
<path d="M350.059 254.289C350.059 254.289 367.28 257.46 374.265 262.857" stroke="#F0F0F0" stroke-width="0.6849" stroke-miterlimit="10"/>
<path d="M401.412 255.463C401.412 255.463 383.952 256.793 376.434 261.42" stroke="#F0F0F0" stroke-width="0.6849" stroke-miterlimit="10"/>
<path d="M401.932 257.837C401.932 257.837 384.432 258.461 376.734 262.781" stroke="#F0F0F0" stroke-width="0.6849" stroke-miterlimit="10"/>
<path d="M373.574 213.545L368.523 218.966C368.523 218.966 369.552 227.855 371.048 230.58C372.545 233.305 374.993 226.709 376.917 225.286C378.841 223.862 373.029 222.464 373.574 213.545Z" fill="#FAFCA7"/>
<path d="M368.523 292.574C368.523 292.574 351.883 284.898 343.489 290.007C335.095 295.116 333.987 323.752 366.031 320.338C398.074 316.923 374.059 294.553 368.523 292.574Z" fill="#1F234F"/>
<path d="M379.966 303.276C379.966 303.276 384.458 293.697 393.794 291.406C410.298 287.355 417.066 284.931 418.524 299.71C419.982 314.489 410.745 323.827 395.463 322.082C380.181 320.337 373.443 315.618 379.966 303.276Z" fill="#1F234F"/>
<path d="M341.775 291.487C341.775 291.487 331.064 295.841 338.101 312.509C345.137 329.177 368.303 354.982 370.4 353.775C372.497 352.568 378.932 351.869 379.212 339.628C379.492 327.387 370.137 322.735 366.031 308.644C361.925 294.553 343.489 292.574 343.489 292.574" fill="#292E68"/>
<path d="M410.02 289.364C410.02 289.364 422.947 288.324 421.11 306.323C419.272 324.322 411.119 356.368 408.76 355.829C406.401 355.29 400.044 356.509 396.186 344.889C392.328 333.268 393.482 325.495 393.275 310.82C393.068 296.145 407.194 289.539 407.194 289.539L410.02 289.364Z" fill="#292E68"/>
<path d="M296.46 154.713C296.46 154.713 300.54 134.836 300.256 126.824C300.256 126.824 318.968 131.164 321.32 130.496C321.32 130.496 318.131 158.161 315.06 158.349C311.989 158.538 296.46 154.713 296.46 154.713Z" fill="white"/>
<path d="M189.125 372.349C189.125 372.349 200.115 355.292 202.747 347.719C202.747 347.719 218.624 358.53 221.059 358.758C221.059 358.758 208.084 383.399 205.153 382.464C202.222 381.529 189.125 372.349 189.125 372.349Z" fill="white"/>
<path d="M352.247 238.022C352.247 238.022 332.235 241.379 324.864 244.531C324.864 244.531 322.169 225.513 320.698 223.559C320.698 223.559 347.654 216.563 348.936 219.36C350.218 222.158 352.247 238.022 352.247 238.022Z" fill="white"/>
<path d="M313.314 366.556C313.314 366.556 296.748 378.274 291.478 384.315C291.478 384.315 280.788 368.356 278.615 367.235C278.615 367.235 299.855 349.223 302.225 351.186C304.594 353.149 313.314 366.556 313.314 366.556Z" fill="white"/>
<path d="M427.965 119.978C427.965 119.978 407.953 123.335 400.582 126.488C400.582 126.488 397.887 107.47 396.416 105.515C396.416 105.515 423.372 98.519 424.654 101.317C425.936 104.114 427.965 119.978 427.965 119.978Z" fill="#F0FBFF"/>
<path d="M237.928 71.576C237.928 71.576 255.649 81.461 263.373 83.607C263.373 83.607 253.592 100.138 253.519 102.583C253.519 102.583 228.104 91.199 228.851 88.214C229.598 85.229 237.928 71.576 237.928 71.576Z" fill="#F0FBFF"/>
<path d="M123.969 327.808C123.969 327.808 113.235 345.028 110.717 352.639C110.717 352.639 94.68 342.066 92.242 341.875C92.242 341.875 104.847 317.043 107.792 317.934C110.737 318.825 123.969 327.808 123.969 327.808Z" fill="white"/>
<path d="M86.172 165.419C86.172 165.419 75.438 182.639 72.919 190.25C72.919 190.25 56.882 179.677 54.444 179.486C54.444 179.486 67.049 154.654 69.994 155.545C72.94 156.435 86.172 165.419 86.172 165.419Z" fill="#F0FBFF"/>
<path d="M136.452 123.216C136.452 123.216 116.164 122.823 108.338 124.561C108.338 124.561 109.198 105.372 108.113 103.18C108.113 103.18 135.897 101.278 136.64 104.264C137.385 107.249 136.452 123.216 136.452 123.216Z" fill="white"/>
</g>
<defs>
<linearGradient id="paint0_linear_1_967" x1="434.13" y1="364.76" x2="434.13" y2="257.28" gradientUnits="userSpaceOnUse">
<stop stop-color="#C97198"/>
<stop offset="1" stop-color="#FCF4C0"/>
</linearGradient>
<linearGradient id="paint1_linear_1_967" x1="434.629" y1="371.332" x2="434.629" y2="260.734" gradientUnits="userSpaceOnUse">
<stop stop-color="#C97198"/>
<stop offset="1" stop-color="#FCF4C0"/>
</linearGradient>
<linearGradient id="paint2_linear_1_967" x1="438.034" y1="312.296" x2="399.276" y2="212.05" gradientUnits="userSpaceOnUse">
<stop stop-color="#C97198"/>
<stop offset="1" stop-color="#FCF4C0"/>
</linearGradient>
<linearGradient id="paint3_linear_1_967" x1="440.869" y1="318.245" x2="400.987" y2="215.091" gradientUnits="userSpaceOnUse">
<stop stop-color="#C97198"/>
<stop offset="1" stop-color="#FCF4C0"/>
</linearGradient>
<linearGradient id="paint4_linear_1_967" x1="103.568" y1="316.964" x2="43.0863" y2="228.118" gradientUnits="userSpaceOnUse">
<stop stop-color="#C97198"/>
<stop offset="1" stop-color="#FCF4C0"/>
</linearGradient>
<linearGradient id="paint5_linear_1_967" x1="107.679" y1="322.116" x2="45.4423" y2="230.692" gradientUnits="userSpaceOnUse">
<stop stop-color="#C97198"/>
<stop offset="1" stop-color="#FCF4C0"/>
</linearGradient>
<linearGradient id="paint6_linear_1_967" x1="109.356" y1="370.557" x2="18.7367" y2="312.764" gradientUnits="userSpaceOnUse">
<stop stop-color="#C97198"/>
<stop offset="1" stop-color="#FCF4C0"/>
</linearGradient>
<linearGradient id="paint7_linear_1_967" x1="115.166" y1="373.671" x2="21.9169" y2="314.2" gradientUnits="userSpaceOnUse">
<stop stop-color="#C97198"/>
<stop offset="1" stop-color="#FCF4C0"/>
</linearGradient>
<linearGradient id="paint8_linear_1_967" x1="294.012" y1="335.522" x2="281.454" y2="253.585" gradientUnits="userSpaceOnUse">
<stop stop-color="#C97198"/>
<stop offset="1" stop-color="#FCF4C0"/>
</linearGradient>
<linearGradient id="paint9_linear_1_967" x1="295.161" y1="340.474" x2="282.238" y2="256.159" gradientUnits="userSpaceOnUse">
<stop stop-color="#C97198"/>
<stop offset="1" stop-color="#FCF4C0"/>
</linearGradient>
<linearGradient id="paint10_linear_1_967" x1="279.617" y1="355.427" x2="307.379" y2="277.321" gradientUnits="userSpaceOnUse">
<stop stop-color="#C97198"/>
<stop offset="1" stop-color="#FCF4C0"/>
</linearGradient>
<linearGradient id="paint11_linear_1_967" x1="278.282" y1="360.333" x2="306.85" y2="279.959" gradientUnits="userSpaceOnUse">
<stop stop-color="#C97198"/>
<stop offset="1" stop-color="#FCF4C0"/>
</linearGradient>
<linearGradient id="paint12_linear_1_967" x1="270.109" y1="371.666" x2="327.176" y2="311.54" gradientUnits="userSpaceOnUse">
<stop stop-color="#C97198"/>
<stop offset="1" stop-color="#FCF4C0"/>
</linearGradient>
<linearGradient id="paint13_linear_1_967" x1="266.898" y1="375.608" x2="325.621" y2="313.737" gradientUnits="userSpaceOnUse">
<stop stop-color="#C97198"/>
<stop offset="1" stop-color="#FCF4C0"/>
</linearGradient>
<clipPath id="clip0_1_967">
<rect width="500" height="500" fill="white"/>
</clipPath>
</defs>
</svg>
